<svg xmlns="http://www.w3.org/2000/svg" width="1024" height="1024"><path d="M51.173 905.31h818.771c28.261 0 51.174-22.912 51.174-51.173v-68.23c0-28.261-22.914-51.173-51.174-51.173h-17.058V309.348l96.891-91.786c22.488 11.086 49.707 4.356 64.424-15.958 14.726-20.306 12.661-48.266-4.88-66.19s-45.443-20.598-66.074-6.33c-20.622 14.276-27.952 41.337-17.358 64.067l-73.003 69.205v-39.354c0-28.26-22.912-51.173-51.173-51.173H119.404c-28.26 0-51.173 22.913-51.173 51.173v511.733H51.173C22.913 734.735 0 757.647 0 785.908v68.23c0 28.261 22.913 51.173 51.173 51.173zm921.118-750.539c9.419 0 17.058 7.638 17.058 17.058s-7.638 17.058-17.058 17.058c-9.421 0-17.058-7.638-17.058-17.058s7.637-17.058 17.058-17.058zm-869.945 68.231c0-9.42 7.638-17.058 17.058-17.058h682.309c9.419 0 17.058 7.638 17.058 17.058v71.637l-34.115 32.418v-69.939c0-9.42-7.638-17.058-17.058-17.058H153.519c-9.42 0-17.058 7.638-17.058 17.058v426.443c0 9.421 7.638 17.058 17.058 17.058h614.079c9.419 0 17.058-7.637 17.058-17.058V373.982l34.115-32.325v393.078H102.346V223.002zm153.52 221.75c-23.078-.066-43.344 15.309-49.482 37.555s3.365 45.843 23.213 57.621c19.84 11.776 45.118 8.819 61.701-7.23l59.294 29.752c6.888 3.448 15.242 1.832 20.363-3.923l126.043-141.802 123.901 92.843c6.646 4.981 15.926 4.448 21.955-1.258L750.54 406.305v260.197H170.577V274.174H750.54v85.131l-120.688 114.29-124.942-93.667c-7.096-5.314-17.083-4.315-22.979 2.307L354.157 526.001l-47.768-23.888c.35-2.048.566-4.114.651-6.189 0-28.259-22.914-51.173-51.174-51.173zm17.057 51.173c0 9.421-7.637 17.059-17.058 17.059-9.419 0-17.058-7.638-17.058-17.059 0-9.419 7.638-17.058 17.058-17.058 9.421 0 17.058 7.638 17.058 17.058zM375.27 768.85h170.578v17.058c0 9.419-7.638 17.058-17.058 17.058H392.328c-9.421 0-17.058-7.638-17.058-17.058V768.85zM34.116 785.907c0-9.421 7.638-17.058 17.058-17.058h289.982v17.058c0 28.261 22.912 51.173 51.173 51.173h136.462c28.259 0 51.173-22.912 51.173-51.173v-17.058h289.981c9.421 0 17.058 7.637 17.058 17.058v68.23c0 9.421-7.637 17.058-17.058 17.058H51.174c-9.42 0-17.058-7.637-17.058-17.058v-68.23z"/></svg>