<svg xmlns="http://www.w3.org/2000/svg" width="1024" height="1024"><path d="M1023.75 1024v-.045h.256V648.403c0-183.722-39.552-325.247-254.336-325.247-103.251 0-172.545 56.661-200.833 110.378h-2.986v-93.226H362.202v683.647h212.054V685.44c0-89.132 16.896-175.318 127.273-175.318 108.762 0 110.381 101.717 110.381 181.034v332.845h211.84zM16.898 340.348h212.309v683.646H16.898V340.348zM122.969-.004C55.087-.004.004 55.079.004 122.961s55.083 124.118 122.965 124.118c67.883 0 122.966-56.235 122.966-124.118C245.892 55.079 190.809-.004 122.969-.004z"/></svg>