<svg xmlns="http://www.w3.org/2000/svg" width="1024" height="1024"><path d="M1001.493 489.64C1001.439 219.165 782.125-.055 511.64 0 241.165.055 21.945 219.374 22 489.851c.047 213.054 137.82 401.634 340.781 466.438 1.938.61 3.954.922 5.978.914a21.614 21.614 0 0 0 10.96-3 20.403 20.403 0 0 0 9.062-11.406l123.68-392c33.813-.171 61.078-27.726 60.899-61.531-.173-33.813-27.72-61.078-61.531-60.906a60.387 60.387 0 0 0-26.243 6.125l-163.39-163.414c-8.109-7.829-21.024-7.602-28.851.499-7.642 7.915-7.642 20.446 0 28.36l163.304 163.493c-12.531 25.578-5.366 56.453 17.165 73.89L355.969 910.844C123.079 825.055 3.829 566.719 89.618 333.83 175.407 100.939 433.743-18.311 666.634 67.478s352.139 344.133 266.35 577.016a449.389 449.389 0 0 1-238.789 255.147l-12.734-59.976c-2.328-11.024-13.163-18.07-24.187-15.734a20.508 20.508 0 0 0-9.36 4.742L525.133 938.291c-8.422 7.491-9.171 20.39-1.672 28.813a20.48 20.48 0 0 0 9.062 5.882l156.758 50.032c10.726 3.445 22.219-2.453 25.664-13.187 1.093-3.39 1.274-7 .539-10.485l-12.515-58.851c181.258-76.414 298.944-254.149 298.523-450.853zM511.75 469.235c11.266 0 20.406 9.139 20.406 20.405 0 11.274-9.141 20.406-20.406 20.406-11.274 0-20.406-9.133-20.406-20.406 0-11.266 9.133-20.405 20.406-20.405zm67.212 475.648 69.89-62.344 19.29 90.891-89.179-28.547z"/><path d="M491.344 101.922v40.812c0 11.273 9.133 20.406 20.406 20.406 11.266 0 20.406-9.133 20.406-20.406v-40.812c0-11.266-9.141-20.406-20.406-20.406-11.274 0-20.406 9.141-20.406 20.406zM124.031 469.234c-11.273 0-20.406 9.141-20.406 20.406 0 11.274 9.133 20.406 20.406 20.406h40.812c11.274 0 20.406-9.133 20.406-20.406 0-11.266-9.133-20.406-20.406-20.406h-40.812zM899.459 510.046c11.274 0 20.406-9.133 20.406-20.406 0-11.266-9.133-20.406-20.406-20.406h-40.811c-11.266 0-20.406 9.141-20.406 20.406 0 11.274 9.141 20.406 20.406 20.406h40.811z"/></svg>