<svg xmlns="http://www.w3.org/2000/svg" width="960" height="1024"><path d="M952.741 707.123 682.559 434.961l29.986-147.696a68.07 68.07 0 0 0 24.269 4.659h.205c38.154.451 69.446-30.112 69.899-68.264s-30.112-69.446-68.264-69.899c-38.154-.45-69.446 30.112-69.899 68.265a69.062 69.062 0 0 0 3.992 23.971l-158.72 19.371L255.125 5.118a17.06 17.06 0 0 0-12.05-5.12 17.063 17.063 0 0 0-11.946 4.966l-48.402 48.128c-6.662 6.664-6.662 17.468 0 24.132l26.043 26.419c-100.897 185.533-68.125 415.29 80.624 565.213a16.213 16.213 0 0 0 4.675 3.123 99.103 99.103 0 0 0-1.672 17.51v197.974h-204.8c-47.104.054-85.278 38.229-85.333 85.333v34.133c0 9.426 7.642 17.067 17.067 17.067h785.066c9.426 0 17.067-7.642 17.067-17.067v-34.133c-.056-47.104-38.229-85.278-85.333-85.333h-204.8v-87.741a480.887 480.887 0 0 0 97.552 10.24 475.183 475.183 0 0 0 225.28-57.07l26.181 26.334a17.07 17.07 0 0 0 12.05 5.12 17.072 17.072 0 0 0 11.946-4.966l48.402-48.128c6.662-6.666 6.662-17.469 0-24.133zM712.954 199.458c13.366-13.294 34.979-13.235 48.272.131s13.235 34.978-.131 48.27a34.137 34.137 0 0 1-24.078 9.933h-.102c-18.85-.098-34.054-15.458-33.957-34.31a34.14 34.14 0 0 1 10.064-24.024h-.067zm-40.175 112.145-19.149 94.259-37.616-37.837 56.765-56.422zm-19.387-28.859-61.44 61.082-47.531-47.787 108.971-13.294zM736.131 921.6c28.277 0 51.2 22.923 51.2 51.2v17.067H36.397V972.8c0-28.277 22.923-51.2 51.2-51.2h648.534zm-238.934-68.267v34.134H326.53v-34.134h170.667zM326.53 819.2V689.493c0-41.403 38.282-75.093 85.334-75.093s85.333 33.69 85.333 75.093V819.2H326.53zm204.801-54.272v-75.435c0-60.227-53.59-109.226-119.467-109.226-42.595-.653-82.424 21.027-104.995 57.155-129.846-136.762-159.086-340.646-72.915-508.388l595.259 598.671a442.268 442.268 0 0 1-297.882 37.222zm361.25-21.88L218.754 65.263l24.15-24.064 253.917 255.352c.12 0 .189.222.309.307l419.669 422.126-24.218 24.064z"/></svg>