<svg xmlns="http://www.w3.org/2000/svg" width="1024" height="1024"><path d="M941.891 436.887c-10.328-13.932-25.485-22.898-42.694-25.314-17.284-2.452-34.34 2.088-48.139 12.647l-44.995 34.493-68.182 50.916-48.789-19.431c86.999-39.034 147.805-126.053 147.805-227.08 0-137.36-112.2-249.117-250.115-249.117S336.671 125.758 336.671 263.118c0 49.786 14.889 96.082 40.241 135.039l-99.303-.862h-.172c-.307 0-.555.153-.843.174-1.897.075-3.756.46-5.575 1.11-.462.174-.94.269-1.38.48-.228.095-.46.113-.69.228l-116.165 57.355c-.02 0-.038 0-.038.018l-68.03 32.714c-.748.325-1.514.765-2.261 1.265-27.116 18.049-36.353 53.501-21.5 82.475 7.914 15.407 21.385 26.753 37.942 31.945a64.963 64.963 0 0 0 19.373 2.97c10.406 0 20.716-2.547 30.161-7.587l49.862-26.522 81.347-42.006 48.75-.287-195.519 194.582c-.018.02-.038.02-.058.038l-48.1 47.907c-11.363 11.307-17.61 26.31-17.61 42.313 0 15.982 6.247 31.024 17.61 42.35 11.671 11.613 27.02 17.437 42.369 17.437 15.369 0 30.698-5.824 42.407-17.437l47.217-47.027 62.549-46.7 32.366 32.231-63.296 63.026c-.018.022-.038.022-.057.04l-48.1 47.905c-11.363 11.307-17.61 26.31-17.61 42.313 0 15.982 6.247 31.024 17.61 42.35 11.671 11.613 27.04 17.439 42.389 17.439s30.718-5.826 42.406-17.439l125.095-124.556c.02-.022.02-.04.038-.059l36.277-35.93-.135-.135c.228-.23.553-.309.785-.555l185.612-203.298 124.712 17.744c.9.135 1.802.192 2.702.192 2.319 0 4.561-.555 6.726-1.38.632-.228 1.187-.537 1.782-.843.69-.345 1.417-.535 2.071-.975l115.455-76.651c.422-.287.652-.749 1.053-1.055.462-.363 1.037-.516 1.455-.92l45.683-42.791c23.771-22.273 27.048-58.758 7.615-84.857zM130.44 566.619c-6.227 3.334-13.299 4.004-20.063 1.859-6.708-2.089-12.149-6.67-15.331-12.859-5.787-11.268-2.434-24.989 7.703-32.403l47.199-22.709 16.135 47.16-35.643 18.953zm125.652-65.669-55.63 28.744-15.769-46.107 72.82-35.951-1.421 53.314zM798.61 263.078c0 32.998-7.876 64.12-21.52 91.962l-150.235-68.238c-1.574-20.6-12.265-38.632-28.323-49.863l52.603-174.63c85.429 27.175 147.476 106.873 147.476 200.769zm-423.574 0c0-116.223 95.009-210.791 211.788-210.791 9.083 0 17.974.766 26.77 1.877l-51.452 170.8c-.69-.02-1.342-.212-2.052-.212-37.099 0-67.28 30.086-67.28 67.072 0 36.983 30.181 67.07 67.28 67.07 24.95 0 46.508-13.777 58.14-33.939l138.777 63.048c-38.614 51.969-100.413 85.869-170.187 85.869-116.776 0-211.785-94.569-211.785-210.793zm214.01 28.746c0 15.847-12.992 28.744-28.956 28.744-15.962 0-28.954-12.897-28.954-28.744 0-15.849 12.992-28.746 28.954-28.746 15.964 0 28.956 12.897 28.956 28.746zm-446.59 539.817c-8.488 8.413-22.23 8.395-30.698.02-4.083-4.082-6.324-9.464-6.324-15.195 0-5.711 2.241-11.097 6.324-15.139l34.567-34.437 30.583 30.451-34.453 34.3zm115.473 134.142c-8.488 8.411-22.248 8.433-30.718.02-4.083-4.082-6.324-9.466-6.324-15.197 0-5.711 2.241-11.095 6.324-15.137l34.589-34.455 30.605 30.451-34.476 34.318zm125.097-124.635c-.02.018-.038.018-.059.038l-63.409 63.236-30.605-30.451 63.353-63.064v-.018c.02-.02.038-.02.057-.038 1.437-1.437 2.337-3.162 3.221-4.867.248-.499.728-.922.938-1.437.595-1.475.69-3.065.922-4.621.113-.882.498-1.703.498-2.607 0-1.284-.46-2.528-.728-3.794-.228-1.15-.228-2.321-.672-3.43-.728-1.802-1.973-3.392-3.275-4.946-.365-.422-.499-.958-.902-1.36h-.02c-.02-.018-.02-.059-.038-.077l-57.737-57.488c-.614-.613-1.399-.862-2.089-1.38-1.015-.785-1.992-1.513-3.124-2.07-1.09-.537-2.202-.862-3.352-1.17-1.225-.347-2.414-.614-3.699-.71-1.17-.077-2.262.038-3.43.172-1.284.153-2.49.325-3.737.728-1.207.384-2.278.977-3.39 1.61-.71.402-1.514.537-2.185 1.035l-63.717 47.564-32.366-32.233 86.195-85.734 156.676 154.09-33.327 33.018zm244.999-252.109c-.555-.075-1.074.135-1.628.097-1.399-.077-2.74.02-4.139.25-1.092.19-2.127.401-3.162.765-1.227.422-2.339.997-3.471 1.687-1.073.65-2.05 1.34-2.988 2.202-.462.402-1.015.595-1.437 1.053L442.391 779.977 286.885 627.038l101.793-101.257c7.493-7.473 7.533-19.603.059-27.116-3.776-3.774-8.738-5.634-13.702-5.614v-.018l-79.718.48.997-57.757 111.528.959c45.455 46.49 108.844 75.483 178.981 75.483 15.712 0 31.043-1.628 45.97-4.409 1.437 1.15 2.855 2.321 4.657 3.049l86.58 34.493 5.479 27.249 6.399 31.809-107.885-15.349zm145.196 6.401-11.248-55.975 51.969-38.806 34.015 45.148-74.736 49.633zm134.868-101.718-30.106 28.209-33.458-44.42 29.874-22.898c5.576-4.292 12.61-6.036 19.508-5.136 6.936.977 13.069 4.599 17.246 10.213 7.781 10.483 6.458 25.104-3.065 34.033z"/></svg>